<svg xmlns="http://www.w3.org/2000/svg" version="1.1" xmlns:xlink="http://www.w3.org/1999/xlink" xmlns:svgjs="http://svgjs.dev/svgjs" width="128" height="128" viewBox="0 0 128 128"><g transform="matrix(0.8046875,0,0,0.8046875,12.292942273878907,8.462661433881948)"><svg viewBox="0 0 89 96" data-background-color="#000000" preserveAspectRatio="xMidYMid meet" height="138" width="128" xmlns="http://www.w3.org/2000/svg" xmlns:xlink="http://www.w3.org/1999/xlink"><g id="tight-bounds" transform="matrix(1,0,0,1,0.1789139575221128,0.012017468725105118)"><svg viewBox="0 0 88.64217208495577 95.481" height="95.481" width="88.64217208495577"><g><svg viewBox="0 0 88.64217208495577 95.481" height="95.481" width="88.64217208495577"><g><svg viewBox="0 0 88.64217208495577 95.481" height="95.481" width="88.64217208495577"><g id="textblocktransform"><svg viewBox="0 0 88.64217208495577 95.481" height="95.481" width="88.64217208495577" id="textblock"><g><svg viewBox="0 0 88.64217208495577 95.481" height="95.481" width="88.64217208495577"><g><svg viewBox="0 0 88.64217208495577 95.481" height="95.481" width="88.64217208495577"><g><svg xmlns="http://www.w3.org/2000/svg" xmlns:xlink="http://www.w3.org/1999/xlink" version="1.1" x="0" y="0" viewBox="1.719 0 44.562 48.000000698562786" enable-background="new 0 0 48 48" xml:space="preserve" id="icon-0" width="88.64217208495577" height="95.481" class="icon-icon-0" data-fill-palette-color="accent"><g fill="#ffd166" data-fill-palette-color="accent"><g fill="#ffd166" data-fill-palette-color="accent"><g fill="#ffd166" data-fill-palette-color="accent"><path d="M29.547 48A1 1 0 0 1 28.636 47.415L18.655 25.526A1 1 0 1 1 20.475 24.696L30.457 46.585A1 1 0 0 1 29.547 48" fill="#ffd166" data-fill-palette-color="accent"></path><g fill="#ffd166" data-fill-palette-color="accent"><path d="M13.047 23.709A1 1 0 0 1 12.137 23.124L8.043 14.145A1 1 0 1 1 9.863 13.315L13.957 22.294A1 1 0 0 1 13.047 23.709" fill="#ffd166" data-fill-palette-color="accent"></path><path d="M17.538 21.663A1 1 0 0 1 16.628 21.078L12.534 12.1A1 1 0 1 1 14.354 11.27L18.448 20.248A1 1 0 0 1 17.538 21.663" fill="#ffd166" data-fill-palette-color="accent"></path><path d="M22.027 19.617C21.648 19.617 21.284 19.399 21.116 19.032L17.023 10.054A1 1 0 0 1 18.844 9.224L22.937 18.202A1 1 0 0 1 22.027 19.617" fill="#ffd166" data-fill-palette-color="accent"></path></g><path d="M17.503 26.563A5.9 5.9 0 0 1 15.449 26.194 5.82 5.82 0 0 1 12.136 23.123 1 1 0 0 1 13.957 22.294 3.84 3.84 0 0 0 16.141 24.317C17.123 24.679 18.191 24.637 19.15 24.2 21.124 23.3 22.006 20.981 21.117 19.03A1 1 0 0 1 22.938 18.201C24.284 21.155 22.957 24.662 19.98 26.021A6 6 0 0 1 17.503 26.563" fill="#ffd166" data-fill-palette-color="accent"></path></g><g fill="#ffd166" data-fill-palette-color="accent"><path d="M20.043 47.205A1 1 0 0 1 19.133 45.79L29.112 23.898A1 1 0 1 1 30.932 24.727L20.954 46.62A1 1 0 0 1 20.043 47.205" fill="#ffd166" data-fill-palette-color="accent"></path><path d="M36.542 22.911A1 1 0 0 1 35.633 21.496L37.854 16.625A1 1 0 1 1 39.674 17.455L37.453 22.326A1 1 0 0 1 36.542 22.911" fill="#ffd166" data-fill-palette-color="accent"></path><path d="M27.562 18.817A1 1 0 0 1 26.653 17.402L28.872 12.532A1 1 0 0 1 30.692 13.361L28.473 18.231A1 1 0 0 1 27.562 18.817" fill="#ffd166" data-fill-palette-color="accent"></path><path d="M32.078 25.761A5.9 5.9 0 0 1 29.608 25.222 5.93 5.93 0 0 1 26.507 21.916 5.82 5.82 0 0 1 26.652 17.402 1 1 0 0 1 28.472 18.232C28.041 19.175 28.008 20.232 28.377 21.208A3.94 3.94 0 0 0 30.438 23.403C32.413 24.303 34.744 23.448 35.633 21.497A1 1 0 1 1 37.453 22.327C36.469 24.485 34.324 25.761 32.078 25.761" fill="#ffd166" data-fill-palette-color="accent"></path><path d="M38.608 18.379A1 1 0 0 1 37.699 16.964C38.588 15.012 37.705 12.692 35.731 11.791S31.426 11.749 30.538 13.699A1 1 0 0 1 28.718 12.87C30.065 9.915 33.582 8.615 36.561 9.971 39.539 11.329 40.866 14.838 39.52 17.793A1 1 0 0 1 38.608 18.379" fill="#ffd166" data-fill-palette-color="accent"></path></g></g><path d="M24 44.563C11.714 44.563 1.719 34.568 1.719 22.282S11.714 0 24 0 46.281 9.995 46.281 22.281 36.286 44.563 24 44.563M24 2C12.817 2 3.719 11.098 3.719 22.281 3.719 33.465 12.817 42.562 24 42.562 35.184 42.562 44.281 33.464 44.281 22.281S35.184 2 24 2" fill="#ffd166" data-fill-palette-color="accent"></path></g></svg></g></svg></g></svg></g></svg></g></svg></g></svg></g><defs></defs></svg><rect width="88.64217208495577" height="95.481" fill="none" stroke="none" visibility="hidden"></rect></g></svg></g></svg>